<?xml version="1.0" encoding="UTF-8" standalone="no"?>
<!-- Created with Inkscape (http://www.inkscape.org/) -->

<svg
   xmlns:dc="http://purl.org/dc/elements/1.1/"
   xmlns:cc="http://creativecommons.org/ns#"
   xmlns:rdf="http://www.w3.org/1999/02/22-rdf-syntax-ns#"
   xmlns:svg="http://www.w3.org/2000/svg"
   xmlns="http://www.w3.org/2000/svg"
   xmlns:sodipodi="http://sodipodi.sourceforge.net/DTD/sodipodi-0.dtd"
   xmlns:inkscape="http://www.inkscape.org/namespaces/inkscape"
   width="30"
   height="30"
   id="svg2"
   version="1.1"
   inkscape:version="0.48.2 r9819"
   sodipodi:docname="confetti_pig.svg"
   inkscape:export-filename="/Users/jeremyosborne/Desktop/confetti_pig.png"
   inkscape:export-xdpi="90"
   inkscape:export-ydpi="90">
  <defs
     id="defs4">
    <inkscape:perspective
       sodipodi:type="inkscape:persp3d"
       inkscape:vp_x="0 : 15 : 1"
       inkscape:vp_y="0 : 1000 : 0"
       inkscape:vp_z="30 : 15 : 1"
       inkscape:persp3d-origin="15 : 10 : 1"
       id="perspective2987" />
  </defs>
  <sodipodi:namedview
     id="base"
     pagecolor="#ffffff"
     bordercolor="#666666"
     borderopacity="1.0"
     inkscape:pageopacity="0.0"
     inkscape:pageshadow="2"
     inkscape:zoom="7.9195959"
     inkscape:cx="6.7144531"
     inkscape:cy="11.334261"
     inkscape:document-units="px"
     inkscape:current-layer="layer1"
     showgrid="false"
     showborder="true"
     inkscape:window-width="1441"
     inkscape:window-height="856"
     inkscape:window-x="0"
     inkscape:window-y="0"
     inkscape:window-maximized="0" />
  <metadata
     id="metadata7">
    <rdf:RDF>
      <cc:Work
         rdf:about="">
        <dc:format>image/svg+xml</dc:format>
        <dc:type
           rdf:resource="http://purl.org/dc/dcmitype/StillImage" />
        <dc:title></dc:title>
      </cc:Work>
    </rdf:RDF>
  </metadata>
  <g
     inkscape:label="Layer 1"
     inkscape:groupmode="layer"
     id="layer1"
     transform="translate(0,-1022.3622)">
    <path
       sodipodi:type="arc"
       style="fill:#ea837f;fill-opacity:1;stroke:#ffffff;stroke-width:3;stroke-miterlimit:4;stroke-opacity:0;stroke-dasharray:none"
       id="path2985"
       sodipodi:cx="15.089153"
       sodipodi:cy="14.973981"
       sodipodi:rx="11.806158"
       sodipodi:ry="8.3337584"
       d="m 26.895311,14.973981 a 11.806158,8.3337584 0 1 1 -23.6123158,0 11.806158,8.3337584 0 1 1 23.6123158,0 z"
       transform="translate(0.63832301,1023.1344)" />
    <path
       sodipodi:type="arc"
       style="fill:#ea837f;fill-opacity:1;stroke:#ffffff;stroke-width:3;stroke-miterlimit:4;stroke-opacity:0;stroke-dasharray:none"
       id="path3003"
       sodipodi:cx="8.4600277"
       sodipodi:cy="22.992067"
       sodipodi:rx="3.1567266"
       sodipodi:ry="4.7350903"
       d="m 11.616754,22.992067 a 3.1567266,4.7350903 0 1 1 -6.3134529,0 3.1567266,4.7350903 0 1 1 6.3134529,0 z"
       transform="matrix(0.70710678,0.70710678,-0.70710678,0.70710678,15.838522,1022.4975)" />
    <path
       transform="matrix(0.70710678,0.70710678,-0.70710678,0.70710678,30.864541,1023.1288)"
       d="m 11.616754,22.992067 a 3.1567266,4.7350903 0 1 1 -6.3134529,0 3.1567266,4.7350903 0 1 1 6.3134529,0 z"
       sodipodi:ry="4.7350903"
       sodipodi:rx="3.1567266"
       sodipodi:cy="22.992067"
       sodipodi:cx="8.4600277"
       id="path3040"
       style="fill:#ea837f;fill-opacity:1;stroke:#ffffff;stroke-width:3;stroke-miterlimit:4;stroke-opacity:0;stroke-dasharray:none"
       sodipodi:type="arc" />
    <path
       sodipodi:type="spiral"
       style="fill:none;stroke:#ea837f;stroke-width:1px;stroke-linecap:butt;stroke-linejoin:miter;stroke-opacity:1"
       id="path3042"
       sodipodi:cx="7.323606"
       sodipodi:cy="3.8623028"
       sodipodi:expansion="1"
       sodipodi:revolution="2.066138"
       sodipodi:radius="6.6513948"
       sodipodi:argument="-18.652161"
       sodipodi:t0="0"
       d="M 7.323606,3.8623028 C 7.7984255,3.9572665 7.429856,4.5492018 7.16577,4.651484 6.4501134,4.9286627 5.817583,4.1969953 5.7452435,3.5466307 5.6158451,2.3832812 6.7099435,1.5074897 7.7971141,1.494759 9.3925806,1.4760763 10.540486,2.9739893 10.480331,4.4936469 10.400154,6.5191114 8.4853785,7.9464751 6.5344259,7.8082091 4.0793512,7.6342154 2.3695267,5.2970494 2.5885185,2.9152867 2.8537469,0.03065288 5.6161418,-1.9631816 8.4284581,-1.661966 c 3.3142179,0.3549721 5.5929749,3.544244 5.2085979,6.7869569 -0.107138,0.9038469 -0.40818,1.7815063 -0.872922,2.5637608"
       transform="matrix(0.4094666,-0.071225,-0.071225,0.4094666,2.171636,1030.9964)" />
    <path
       sodipodi:type="arc"
       style="fill:#ea837f;fill-opacity:1;stroke:none"
       id="path3812"
       sodipodi:cx="22.98097"
       sodipodi:cy="11.75412"
       sodipodi:rx="4.9244938"
       sodipodi:ry="4.4825521"
       d="m 27.905464,11.75412 a 4.9244938,4.4825521 0 1 1 -9.848987,0 4.9244938,4.4825521 0 1 1 9.848987,0 z"
       transform="matrix(1.3961678,0,0,1.1085666,-8.9990483,1018.4394)" />
    <path
       style="fill:#ea837f;fill-opacity:1;stroke:#ea837f;stroke-width:2.05288171999999980;stroke-miterlimit:4;stroke-opacity:1;stroke-dasharray:none"
       id="path3820"
       d="m 20.267241,1028.4685 c 0.01334,-0.2575 0.02864,-0.5107 -0.08546,-0.7308 -0.189626,-0.2574 -0.470717,-0.271 -0.724862,-0.3009 -0.334196,-0.013 -0.663894,-0.1 -0.986926,-0.2101 -0.301208,-0.1404 -0.616903,-0.2048 -0.922171,-0.3247 -0.221808,-0.095 -0.450309,-0.1435 -0.681914,-0.1658 -0.09654,0 -0.201165,-0.034 -0.296192,0.012 -0.02736,0.012 -0.100372,0.074 -0.07535,0.056 0.906765,-0.6791 1.152211,-0.9233 0.820414,-0.5998 -0.09712,0.1123 -0.159319,0.2653 -0.122634,0.4344 0.08978,0.1426 0.194908,0.2766 0.301588,0.4006 0.223636,0.1876 0.470292,0.3221 0.717966,0.4424 0.147815,0.067 0.275674,0.1747 0.403151,0.2904 0.09205,0.1242 0.19286,0.2309 0.293383,0.3421 0.07108,0.1111 0.156492,0.2021 0.233862,0.3046 0.08811,0.1368 0.185146,0.2615 0.282941,0.3862 0.07195,0.1365 0.178895,0.2096 0.287074,0.2838 0.01715,0.012 0.03431,0.016 0.05147,0.025 0,0 -0.921967,0.8192 -0.921967,0.8192 l 0,0 c -0.01926,-0.013 -0.03851,-0.024 -0.05776,-0.037 -0.112266,-0.087 -0.222027,-0.1749 -0.300508,-0.3176 -0.09824,-0.1244 -0.190662,-0.2559 -0.285983,-0.3838 -0.07825,-0.095 -0.15322,-0.1949 -0.226135,-0.2976 -0.09971,-0.1065 -0.194968,-0.2185 -0.290965,-0.331 -0.117576,-0.1123 -0.244195,-0.2003 -0.379178,-0.2702 -0.251549,-0.1421 -0.507059,-0.2821 -0.735096,-0.485 -0.124127,-0.1376 -0.258842,-0.2772 -0.345791,-0.4604 -0.05897,-0.2276 -0.02782,-0.3948 0.07074,-0.596 0.479555,-0.5886 0.887303,-0.9479 1.469138,-0.8613 0.233151,0.035 0.461414,0.098 0.684815,0.1959 0.304228,0.1099 0.61251,0.1999 0.913537,0.3261 0.322059,0.1 0.648954,0.1721 0.97976,0.1921 0.289271,0.043 0.58864,0.086 0.791047,0.3966 0.133232,0.2731 0.126314,0.4841 0.128568,0.7981 0,0 -0.990554,0.6726 -0.990554,0.6726 z"
       inkscape:connector-curvature="0" />
    <path
       inkscape:connector-curvature="0"
       d="m 23.206625,1027.4454 c -0.01334,-0.2575 -0.02864,-0.5106 0.08546,-0.7308 0.189626,-0.2574 0.470717,-0.271 0.724862,-0.3009 0.334196,-0.013 0.663894,-0.1 0.986926,-0.2101 0.301208,-0.1404 0.616903,-0.2048 0.922171,-0.3247 0.221808,-0.095 0.450309,-0.1435 0.681914,-0.1657 0.09654,0 0.201165,-0.034 0.296192,0.012 0.02736,0.012 0.100372,0.074 0.07535,0.056 -0.906765,-0.6791 -1.152211,-0.9233 -0.820414,-0.5998 0.09712,0.1123 0.159319,0.2653 0.122634,0.4344 -0.08978,0.1426 -0.194908,0.2766 -0.301588,0.4006 -0.223636,0.1876 -0.470292,0.3221 -0.717966,0.4424 -0.147815,0.067 -0.275674,0.1748 -0.403151,0.2904 -0.09205,0.1242 -0.19286,0.2309 -0.293383,0.3421 -0.07108,0.1112 -0.156492,0.2021 -0.233862,0.3046 -0.08811,0.1368 -0.185146,0.2616 -0.282941,0.3862 -0.07195,0.1365 -0.178895,0.2096 -0.287074,0.2838 -0.01715,0.012 -0.03431,0.016 -0.05147,0.025 0,0 0.921967,0.8193 0.921967,0.8193 l 0,0 c 0.01926,-0.013 0.03851,-0.024 0.05776,-0.037 0.112266,-0.087 0.222027,-0.1749 0.300508,-0.3176 0.09824,-0.1244 0.190662,-0.2559 0.285983,-0.3838 0.07825,-0.095 0.15322,-0.1949 0.226135,-0.2976 0.09971,-0.1065 0.194968,-0.2185 0.290965,-0.331 0.117576,-0.1123 0.244195,-0.2003 0.379178,-0.2702 0.251549,-0.1421 0.507059,-0.2821 0.735096,-0.485 0.124127,-0.1376 0.258842,-0.2772 0.345791,-0.4604 0.05897,-0.2276 0.02782,-0.3948 -0.07074,-0.596 -0.479555,-0.5886 -0.887303,-0.9479 -1.469138,-0.8613 -0.233151,0.035 -0.461414,0.098 -0.684815,0.1959 -0.304228,0.1099 -0.61251,0.1999 -0.913537,0.3261 -0.322059,0.1 -0.648954,0.1722 -0.97976,0.1921 -0.289271,0.043 -0.58864,0.086 -0.791047,0.3966 -0.133232,0.2731 -0.126314,0.4841 -0.128568,0.7981 0,0 0.990554,0.6726 0.990554,0.6726 z"
       id="path3822"
       style="fill:#ea837f;fill-opacity:1;stroke:#ea837f;stroke-width:2.05288171999999980;stroke-miterlimit:4;stroke-opacity:1;stroke-dasharray:none" />
  </g>
</svg>
